
<global>
amp_veltrack=0
ampeg_attack=0.01
ampeg_release=0.45
</global>

<group>
group_label=PP
lpc_hicc1=42
lpc_locc1=0

<region>
hikey=A#1
hivel=127
lokey=A1
loop_end=189941
loop_mode=loop_continuous
loop_start=59789
loop_xfade=32538
lovel=1
lpc=AzacQhCsCsMU5VVCtpBRwYW05EHoYfvAlX9jQNUaq8Af9ydAaCSPv4ks7z+W8Ze/08UXPwAQZ8C31Mw+4PE8Pk/ryj4Pdcc/tGQBQKiATD/e4Pq/BPKtvlKki8CR0mBA
lpc_rms=-52.95
offset=17550
pitch_keycenter=A#1
sample=Cimbasso_muted_PP_A#2.opus
tune=+13
</region>

<region>
hikey=A#2
hivel=127
lokey=A2
loop_end=189941
loop_mode=loop_continuous
loop_start=59789
loop_xfade=32538
lovel=1
lpc=l/OoQjH/IMNrJKBCum/PwaYPBEKDNx3BJuiCQIb3F8FsvapA2EiCwL0mlz9yo6tA6stGQMoxisDl8jXAsTzWPzXpK8Az6b4/62FPQEF8A0AE95vA5L+yPjyS7sBuZOhA
lpc_rms=-51.45
offset=15475
pitch_keycenter=A#2
sample=Cimbasso_muted_PP_A#3.opus
tune=-4
</region>

<region>
hikey=C4
hivel=127
lokey=A3
loop_end=260503
loop_mode=loop_continuous
loop_start=82001
loop_xfade=44625
lovel=1
lpc=INGAQtTIFMNYeftCnFp+ws9oB0LliZPBEFSgQC2Chr9K2vNAZkMwwZi7nUA1/phApRsbwKGg2b+IXtFAJlt3wLCPGsARdhlA26KlP6NIgcD7+va+OtdMQKg4zsDxUJhA
lpc_rms=-50.48
offset=17222
pitch_keycenter=A#3
sample=Cimbasso_muted_PP_A#4.opus
tune=-4
</region>

<region>
hikey=C2
hivel=127
lokey=B1
loop_end=189941
loop_mode=loop_continuous
loop_start=59789
loop_xfade=32538
lovel=1
lpc=dPZMQtD1r8JJ+ARC/bYpwe1uk0FWIorAV3k+QHZWi8Cx87A/Ui3Pv6QNzT/W+9U+QuF1P5cfj77Rkm++QdrKvvY1sr7oB9G8MKCNP1Sc6D7312q/QlwgPjkOP8DkkQ1A
lpc_rms=-57.18
offset=15332
pitch_keycenter=C2
sample=Cimbasso_muted_PP_C3.opus
tune=-1
</region>

<region>
hikey=C3
hivel=127
lokey=B2
loop_end=189941
loop_mode=loop_continuous
loop_start=59789
loop_xfade=32538
lovel=1
lpc=GGlCQorgp8IGdBFC35CUwSBflkGtaYbAe8LjQO/YI8CdRfI/2M2MwJ8J4r2A3bo/7tyJP3ycVr/d5ZQ+5kWgvFuTmr+HOCg/j1+kPo7pYz5DDI6/lzm4vV40hr/Bl8A/
lpc_rms=-57.01
offset=11449
pitch_keycenter=C3
sample=Cimbasso_muted_PP_C4.opus
tune=-53
</region>

<region>
hikey=D2
hivel=127
lokey=C#2
loop_end=188110
loop_mode=loop_continuous
loop_start=59213
loop_xfade=32224
lovel=1
lpc=k1PHQt70OMPEeqRCkBWvwT9mG0J8G1nB6THAQEfaF8HZQitAKTIDwKeeIEBenS9Ane6FPw8uHMBi3QDAJavAv5AO0D8NyYO+QycrQCIV2D4SUz4/dcE+wFhmj8AYA5FA
lpc_rms=-50.47
offset=13399
pitch_keycenter=D2
sample=Cimbasso_muted_PP_D3.opus
tune=-9
</region>

<region>
hikey=D3
hivel=127
lokey=C#3
loop_end=189941
loop_mode=loop_continuous
loop_start=59789
loop_xfade=32538
lovel=1
lpc=IjeZQiZxCsPuXYVCAyDAwdm/tEF5z+nARG/vQAxrk8CojSg9J7mHwMWHVkCEPr1A3JiSP8vApsBJBRXAgJRAQMvn1T+HQeU+KADlvimWCz90CS3AMsgyP9fO6sBtlNRA
lpc_rms=-52.25
offset=10330
pitch_keycenter=D3
sample=Cimbasso_muted_PP_D4.opus
tune=-6
</region>

<region>
hivel=127
key=E1
loop_end=189941
loop_mode=loop_continuous
loop_start=59789
loop_xfade=32538
lovel=1
lpc=Np9nQgUKxML62QtCmOBNwRWCr0HofFHAIQGfQLIrtsCQm7Y99qTFv/vcnj9Gk0I/wS+VPUSdU7+vJqq/9jRDP+xXaT+ltuk//n5rP+5Amz65D7u/xVbDvxbfVsCrH1lA
lpc_rms=-56.16
offset=20690
sample=Cimbasso_muted_PP_E2.opus
tune=-6
</region>

<region>
hikey=E2
hivel=127
lokey=D#2
loop_end=189941
loop_mode=loop_continuous
loop_start=59789
loop_xfade=32538
lovel=1
lpc=ZuR+QmGP08I4ShtCjT2KwaHsskH3op/AR8DWQLn4gMAShtg/kqcEwEWWZj+k5lY/4ARrP8RiWb3gMsG/ecOAPilg1j9amuC+xu49PgYgwL5+dQDANs5cv7XnSsBAIZZA
lpc_rms=-54.95
offset=12558
pitch_keycenter=E2
sample=Cimbasso_muted_PP_E3.opus
tune=-3
</region>

<region>
hikey=E3
hivel=127
lokey=D#3
loop_end=189941
loop_mode=loop_continuous
loop_start=59789
loop_xfade=32538
lovel=1
lpc=odYiQmqCocJMWEBC+4tjwWgVP0EOsLHA/4aiPppziMBBZCFAU0Gdv9Mf5T89APY/xfGOvvJD2L8qazBAQP6UvlyCD8CrFIK/KWQmQMsjED3rwYG+7Oxlv4rf2z86PMW/
lpc_rms=-56.69
offset=11168
pitch_keycenter=E3
sample=Cimbasso_muted_PP_E4.opus
tune=-3
</region>

<region>
hikey=F#1
hivel=127
lokey=F1
loop_end=189941
loop_mode=loop_continuous
loop_start=59789
loop_xfade=32538
lovel=1
lpc=KaWTQmD+9sKscTRCbBGZwd+8zkGk7YDAJGUKQW06o8DzelK/K/RwwNPuHUABzSo9TV2aPwXxK8APTiJASyYKvp+ubT9EJN4/f8AOv54EOb4rSOa/QJF2vxtJTsBxQ2lA
lpc_rms=-53.87
offset=16085
pitch_keycenter=F#1
sample=Cimbasso_muted_PP_F#2.opus
tune=-5
</region>

<region>
hikey=F#2
hivel=127
lokey=F2
loop_end=189941
loop_mode=loop_continuous
loop_start=59789
loop_xfade=32538
lovel=1
lpc=6Fp0QrSJqcKxK5pB2zCVwfjobkGeXTTA7ILlQLUjFz/xrGdAIwv0P7poI0CRlOc/aNSdPhbf97+xXeG/2aySvyjgUb+2TrG/ZMiWvn+Vmr68vQrAz+NCvkjUor/xgo5A
lpc_rms=-57.09
offset=11950
pitch_keycenter=F#2
sample=Cimbasso_muted_PP_F#3.opus
tune=-3
</region>

<region>
hikey=F#3
hivel=127
lokey=F3
loop_end=189906
loop_mode=loop_continuous
loop_start=59778
loop_xfade=32532
lovel=1
lpc=mSmvQjfrOsNZS/NC3gcJwsi51UE7ubzBSxUKQd7ct8Aos8dABKyEwKvnk0DBdztAJHmWP9oJGsBmNk6/oR81wNa+K8BowiZANFCiQCadB71giSHALk3zPz89B8GlOq9A
lpc_rms=-49.58
offset=14371
pitch_keycenter=F#3
sample=Cimbasso_muted_PP_F#4.opus
tune=-2
</region>

<region>
hikey=G#1
hivel=127
lokey=G1
loop_end=189941
loop_mode=loop_continuous
loop_start=59789
loop_xfade=32538
lovel=1
lpc=09+AQlA018KMHxFCLFdUwf9owkH/s7zAtJCiQH4tYMDv9RtAySbOv0hcuj/zo1a/DsRTv93RxL/BIKk+HVKwP+VCiD9FXlM/8s4Qv8nkDr8wUf+/oA4MvocJeMDcxZdA
lpc_rms=-55.33
offset=13591
pitch_keycenter=G#1
sample=Cimbasso_muted_PP_G#2.opus
tune=-4
</region>

<region>
hikey=G#2
hivel=127
lokey=G2
loop_end=189941
loop_mode=loop_continuous
loop_start=59789
loop_xfade=32538
lovel=1
lpc=FrlsQhsb48J2GWNCoK6KwdqkyUFmIwPBXFM+v16qp8Cwn4BAEEMpwAKI1j9nwVxAdGyJP1+WHsAoHwe/VELgPrN7yL9P0YW/HyvkP2lMLECyWRLAhjmhPzPJwsDxZY1A
lpc_rms=-54.59
offset=19477
pitch_keycenter=G#2
sample=Cimbasso_muted_PP_G#3.opus
tune=-3
</region>

<region>
hikey=G#3
hivel=127
lokey=G3
loop_end=189538
loop_mode=loop_continuous
loop_start=59663
loop_xfade=32468
lovel=1
lpc=WRCmQn9TL8MIlt1COb4EwlmC7kEpaZzBkC+tQAZrFcEz6BVBdWcPwNTmIkCrzqo/7uyDv5yIOsCNtnJAvIyBPWrlW8C0Eje+PP8iQKTh/D8rVKO/YZUBQKolRMEVfwRB
lpc_rms=-49.84
offset=12144
pitch_keycenter=G#3
sample=Cimbasso_muted_PP_G#4.opus
tune=-1
</region>
</group>

<group>
group_label=MF
lpc_hicc1=84
lpc_locc1=43

<region>
hikey=A#1
hivel=127
lokey=A1
loop_end=189941
loop_mode=loop_continuous
loop_start=59789
loop_xfade=32538
lovel=1
lpc=hUyMQscnK8MBgwhD7AFNwo1IEUKhOenBryhQQZKBacA/0tg/ubLvwEwu3kCjSwPAJtm2v5zfJEAVX8k/YtK1wHi8zz//A2tAWDaLv8aHj78IKMA/1uiuvi+WA8A8l4s/
lpc_rms=-49.39
offset=15348
pitch_keycenter=A#1
sample=Cimbasso_muted_MF_A#2.opus
tune=-2
</region>

<region>
hikey=A#2
hivel=127
lokey=A2
loop_end=177011
loop_mode=loop_continuous
loop_start=55719
loop_xfade=30323
lovel=1
lpc=dzuKQv5QLcPH7h9DB5qywpsUaUJzmAfC+CkHQfr6PkDgzv4/YUElwcOJq0CH+YhAvJKYwEySoj/ROo9AlR1bwKs8gsD+KzJA37UbQGKDAz+A3J3ATMKfQHBxqsBmMDZA
lpc_rms=-47.70
offset=4277
pitch_keycenter=A#2
sample=Cimbasso_muted_MF_A#3.opus
tune=-2
</region>

<region>
hikey=C4
hivel=127
lokey=A3
loop_end=240552
loop_mode=loop_continuous
loop_start=75721
loop_xfade=41207
lovel=1
lpc=6eRAQk+/BcO/0RdDeRjrwlWbqUJIPz/CIOvLQVK5dMGbCrdAC7A5wN2XO0DgHci/2E0CPTyu4L9R6ctAKqAFwWNOvD9a/4w/ELVsQK+iyr+3fjNAmskLwGOKwMB8i5FA
lpc_rms=-46.93
offset=3008
pitch_keycenter=A#3
sample=Cimbasso_muted_MF_A#4.opus
tune=-1
</region>

<region>
hikey=C2
hivel=127
lokey=B1
loop_end=189478
loop_mode=loop_continuous
loop_start=59643
loop_xfade=32458
lovel=1
lpc=2v6OQn37J8PyYQNDZExMwj4u9EHJOrTBvglTQWRNhMBG2LE/hb3IwP6/g0C7eSNAyPBtwLcJJj69Ues/xcGJvlsXlcBlpHRAh7gtQGAa67+ArVS/9bIxQIRq/7/qyfe+
lpc_rms=-49.95
offset=14987
pitch_keycenter=C2
sample=Cimbasso_muted_MF_C3.opus
tune=-2
</region>

<region>
hikey=C3
hivel=127
lokey=B2
loop_end=179728
loop_mode=loop_continuous
loop_start=56574
loop_xfade=30788
lovel=1
lpc=r66PQjceOcMHADdDMeLkwsfYk0JB4RPCfircQIw2J79RFfJAtVdEwZJvB0Ezby1AS24IwdOilEDovCRAWrAGwHW/zsD03c0/W3qUQIfEGEA8JozAH0X1QOH2KcEfXYJA
lpc_rms=-47.08
offset=4583
pitch_keycenter=C3
sample=Cimbasso_muted_MF_C4.opus
tune=-3
</region>

<region>
hikey=D2
hivel=127
lokey=C#2
loop_end=177360
loop_mode=loop_continuous
loop_start=55829
loop_xfade=30382
lovel=1
lpc=G9LBQk0obsNkY1FDDgfYwpMChkIauRzCOjGEQShQyMCshxlBnJ+KwRkjKEH8xr5AIpcVwaXxCcB60EdBnvj2wGf1x8ARKAJBp6DJPhcyRMA32CY/EcHFQIQiLsF+0JZA
lpc_rms=-45.71
offset=829
pitch_keycenter=D2
sample=Cimbasso_muted_MF_D3.opus
tune=-3
</region>

<region>
hikey=D3
hivel=127
lokey=C#3
loop_end=180435
loop_mode=loop_continuous
loop_start=56797
loop_xfade=30909
lovel=1
lpc=frmNQhafPcPL3ExDBgsQw1RQukIiWVLC+w7DQdVGLcFdETtBKI98wSerLEE7CbU+2I8OwIoV8MDdAX9BNBJKwezSL8CpkLlA6NkPQLImCMCZmTHAzzRFQbnQPcH0LSBA
lpc_rms=-44.94
offset=1519
pitch_keycenter=D3
sample=Cimbasso_muted_MF_D4.opus
tune=-2
</region>

<region>
hivel=127
key=E1
loop_end=189941
loop_mode=loop_continuous
loop_start=59789
loop_xfade=32538
lovel=1
lpc=NJiBQmvfDsNARbxC967lwfWS0kE2omrBkfnAQAbP0cBj8n5AJOadwI2GJT/J0iBAqSxLP+N6O8CZ4GE/NxzyPqTt5r/8lPI9g9FmQB7Tyz93Bci/2xYcP7WJmcDAbSJA
lpc_rms=-51.87
offset=16234
sample=Cimbasso_muted_MF_E2.opus
tune=-3
</region>

<region>
hikey=E2
hivel=127
lokey=D#2
loop_end=189586
loop_mode=loop_continuous
loop_start=59678
loop_xfade=32477
lovel=1
lpc=QpyVQmZpMcM/QBdD7tmcwgmhNELSVq/BZxz1QMz4A8Cac+ZAwXYiwRcxAED5/dZAVIDFwL2gVb+E5tlAfndawPYTY8C+CJJAy3DGPEm7C8BOxw7AodDwQBzgK8F5jbRA
lpc_rms=-48.65
offset=18153
pitch_keycenter=E2
sample=Cimbasso_muted_MF_E3.opus
tune=-2
</region>

<region>
hikey=E3
hivel=127
lokey=D#3
loop_end=187665
loop_mode=loop_continuous
loop_start=59073
loop_xfade=32148
lovel=1
lpc=SDCNQjFLPMOW5U1Dwngdw7yc5kLOE4LCLfXHQQHj7sDK3iRBT+KmwWhmhUFxAlLAKITfv24CSj/WFhNAs16+wCpuEEBiDzhAWJ0gv2LQmD/T7rrAN98+QT+oWMEwNatA
lpc_rms=-44.65
offset=14050
pitch_keycenter=E3
sample=Cimbasso_muted_MF_E4.opus
tune=-1
</region>

<region>
hikey=F#1
hivel=127
lokey=F1
loop_end=189603
loop_mode=loop_continuous
loop_start=59683
loop_xfade=32480
lovel=1
lpc=W6+IQgcIGMOSe8xCHd7kwZalwkFrvJ/BcYEkQZ+9bsBsx8o/ToWYwKXeAj2AkwxATPVNvpXwuT6v9UA/lecWwPBEbL+7v1pAOCeWPkC5nL73+5i+ujEFQL4WDcAJy8++
lpc_rms=-51.18
offset=16377
pitch_keycenter=F#1
sample=Cimbasso_muted_MF_F#2.opus
tune=-3
</region>

<region>
hikey=F#2
hivel=127
lokey=F2
loop_end=189941
loop_mode=loop_continuous
loop_start=59789
loop_xfade=32538
lovel=1
lpc=6mBCQgZp3sL/Oa5Ca84Gwhw0eUEdMxvB23qlQDDIVsA0FYQ/3rgWwO7aQkDt7ihAwegawPPcL7+3SkdAnNYgwOpWF8B1bsg/ES3OP3xQQL2NrYa/YVAgQCDwdMCep8U/
lpc_rms=-53.20
offset=11155
pitch_keycenter=F#2
sample=Cimbasso_muted_MF_F#3.opus
tune=-2
</region>

<region>
hikey=F#3
hivel=127
lokey=F3
loop_end=176938
loop_mode=loop_continuous
loop_start=55696
loop_xfade=30310
lovel=1
lpc=/MCWQiKsRMMEsS9DBYKCwnXynUH2/N7AFRwswH/5gj9pBOu/5RdCv7XdgkC2owY+za9MwDIfoT+nXJtA5LgMweDsGL2tmAVBgYAjP8uC1sCJiytAmr79P185o8AIoiNA
lpc_rms=-43.33
offset=7027
pitch_keycenter=F#3
sample=Cimbasso_muted_MF_F#4.opus
tune=-1
</region>

<region>
hikey=G#1
hivel=127
lokey=G1
loop_end=189941
loop_mode=loop_continuous
loop_start=59789
loop_xfade=32538
lovel=1
lpc=WrCRQruNLMNdjP9C/pgPwu9vykGrLcLB9YgWQUblWMCSb3VA5326wDWbOkBaE1y/B4ujvyR5Rj/ymJBAf+CGwAJb9L/TDHxAVKEEQLqQOMAq9Ma/H26qP3kFFkDf0RHA
lpc_rms=-49.97
offset=12999
pitch_keycenter=G#1
sample=Cimbasso_muted_MF_G#2.opus
tune=-2
</region>

<region>
hikey=G#2
hivel=127
lokey=G2
loop_end=187890
loop_mode=loop_continuous
loop_start=59144
loop_xfade=32186
lovel=1
lpc=G4iNQh5cK8OU1xRDV8KQwgtfEkJwbKHB4nJKQa6+mMBUtYFAu+0VwZZe5kA9/vo/t96swBLmFcAWddRARN7OvxXTmsAvU4NAdjSiPzTXPr/WYyDAyXyxQFmrq8CmnM0/
lpc_rms=-49.04
offset=12116
pitch_keycenter=G#2
sample=Cimbasso_muted_MF_G#3.opus
tune=-1
</region>

<region>
hikey=G#3
hivel=127
lokey=G3
loop_end=176958
loop_mode=loop_continuous
loop_start=55703
loop_xfade=30313
lovel=1
lpc=ZQYUQ5cUz8MULstDwvpEw8729UKuUZjCZXE+wB/LBkGuXQpAhtxIwAaoDkE+VS5Bw38IwVBEYMFsvAPA7qTeQHFQ9kDfAPZAQ+dDwXdah78MF43AabvGQBvtZ0AlP3XA
lpc_rms=-38.35
offset=3512
pitch_keycenter=G#3
sample=Cimbasso_muted_MF_G#4.opus
tune=-1
</region>
</group>

<group>
group_label=FF
lpc_hicc1=127
lpc_locc1=85

<region>
hikey=A#1
hivel=127
lokey=A1
loop_end=168678
loop_mode=loop_continuous
loop_start=53096
loop_xfade=28895
lovel=1
lpc=m6NAQcFmEcKlO15CUpV2whv0aEKhLEvChSQoQhQiB8L71tpBM5mywdtuiEHwRDrBkPPnQIRHjMCkfBRACNBVv7kGM7/a4QVA5a0hwLWT6j+bZYe/n0JWP4WqQb/hlwY/
lpc_rms=-43.37
offset=2806
pitch_keycenter=A#1
sample=Cimbasso_muted_FF_A#2.opus
</region>

<region>
hikey=A#2
hivel=127
lokey=A2
loop_end=177473
loop_mode=loop_continuous
loop_start=55865
loop_xfade=30402
lovel=1
lpc=lK0CQk45zMKozQtDoAXpwtIakkJpUizC5BbOQb0ugsF1MIVBFJyXwc6vX0HWT4PAn3OlwOdr6kDndQHAD7tcwK9SKEDS2VJAnFyYwCZAKj3gBpJAWNTJwHAHvEDMiR/A
lpc_rms=-41.76
offset=689
pitch_keycenter=A#2
sample=Cimbasso_muted_FF_A#3.opus
tune=-1
</region>

<region>
hikey=C4
hivel=127
lokey=A3
loop_end=228250
loop_mode=loop_continuous
loop_start=71848
loop_xfade=39100
lovel=1
lpc=geGwQfqFgMKlYKZCOO+KwomBOkL5euPBSIGIQbOwPsFNAUpBbsRswb4nXkERDzfBn1MIQcHwzsDcMr9ApKjQwGMw1EByrLPAuG/mQI5bDMH6f8hA5mhbwKefMUA1p5y/
lpc_rms=-40.64
offset=4555
pitch_keycenter=A#3
sample=Cimbasso_muted_FF_A#4.opus
tune=-2
</region>

<region>
hikey=C2
hivel=127
lokey=B1
loop_end=177599
loop_mode=loop_continuous
loop_start=55904
loop_xfade=30423
lovel=1
lpc=PqutQfgbicLkCM1C0+PMwv1Dn0I4y1TCCIwAQlAWksFyQEZBlowywdxdD0FORk7AI0kTwPfUQEA/MjK+HOhFwB3pXUBPVPu/4Ml6Py6fub8weXBA7hSkwLfvhkDM2cS/
lpc_rms=-43.27
offset=1931
pitch_keycenter=C2
sample=Cimbasso_muted_FF_C3.opus
</region>

<region>
hikey=C3
hivel=127
lokey=B2
loop_end=177359
loop_mode=loop_continuous
loop_start=55829
loop_xfade=30382
lovel=1
lpc=LkUZQuDb68L6PxtDZgXzwqbTmEKjsGnCmSVKQsrPGMLX4BBCh40swmwvEUINBmDBSULjvyUGCEBaz6I+xFrIvkyEBMDaL9lAbgbBwNdkhD9b9ydAuMaNwDXWlUCMMwDA
lpc_rms=-39.00
offset=580
pitch_keycenter=C3
sample=Cimbasso_muted_FF_C4.opus
</region>

<region>
hikey=D2
hivel=127
lokey=C#2
loop_end=177271
loop_mode=loop_continuous
loop_start=55801
loop_xfade=30367
lovel=1
lpc=c90OQvXs3sLkKRlDu6sCw6hEtEKUM4rCj5lgQhZcGcIvyNdBrPbMwRC/qkEPWpvAl+s3wSosSEGDPVLAv+8uwB48Rj4/7hdA6jKLPzd3x8AD7R1BqwgXwVsIvkB+hwLA
lpc_rms=-39.95
offset=867
pitch_keycenter=D2
sample=Cimbasso_muted_FF_D3.opus
tune=-1
</region>

<region>
hikey=D3
hivel=127
lokey=C#3
loop_end=175831
loop_mode=loop_continuous
loop_start=55348
loop_xfade=30120
lovel=1
lpc=cOI5Qm0sG8Nfd2VDzL1Pw1vbDENWXrXCp5mJQhENcMIxb1dClwcuwne0t0FudWC/EdIpwWCN10D/BgxBIUe5wSOnvkGdQmjBNkgiQSPsg8HbQeNBIRYKwkcux0FjN+7A
lpc_rms=-35.74
offset=4386
pitch_keycenter=D3
sample=Cimbasso_muted_FF_D4.opus
tune=-1
</region>

<region>
hivel=127
key=E1
loop_end=180000
loop_mode=loop_continuous
loop_start=56660
loop_xfade=30835
lovel=1
lpc=wL/5QdW2pMIBKaBCnZsYwoIjqEGTUK7Bg+RIQdDxV8BBEJhA2MnJwLi9sj9l2ndAf/1lwGFlJL8vjw5AWCjbvQy/AsB3/ys/YXZbQCxoiMBppwhA/fknwNCCnUCE6i3A
lpc_rms=-47.82
offset=5987
sample=Cimbasso_muted_FF_E2.opus
tune=+2
</region>

<region>
hikey=E2
hivel=127
lokey=D#2
loop_end=176951
loop_mode=loop_continuous
loop_start=55700
loop_xfade=30312
lovel=1
lpc=EG+3QYldlMKRqulCG0L/wh/I4kKOqbTCCEqLQkdUXsLDRENC8rU2wpAlHEIo89fB//dhQU4Xp8DhPlE/duxPPi4ApT513hDA8yShQGhz1sAAkNlAzlClwMq1KkC9yfm+
lpc_rms=-38.18
offset=1282
pitch_keycenter=E2
sample=Cimbasso_muted_FF_E3.opus
tune=-1
</region>

<region>
hikey=E3
hivel=127
lokey=D#3
loop_end=179846
loop_mode=loop_continuous
loop_start=56612
loop_xfade=30808
lovel=1
lpc=R8D8QcHYy8JVFRFDic76wuq4pkJJ0V/Cfe0jQu4/BMJ31gRCTPIJwhT83UFCZk/BwUx4v7RcxEA3k4DAL1PtP5A4psDVCvBA+mE5wLgc2b8DxidAOQw7wLIXOEBQ+XK/
lpc_rms=-40.37
offset=3834
pitch_keycenter=E3
sample=Cimbasso_muted_FF_E4.opus
tune=+1
</region>

<region>
hikey=F#1
hivel=127
lokey=F1
loop_end=189941
loop_mode=loop_continuous
loop_start=59789
loop_xfade=32538
lovel=1
lpc=ObIRQrvYr8IWXoVCfdxTweiF9kBnTIbBLG67QN91ND5nUIxAWxpWwJCUCr+7FJ0/MTXivskuLb/x34Y/AYRiv/sTfL8nwwNAZET0P+9MRcAx6ja/5OESP0P1NUAFAAPA
lpc_rms=-49.24
offset=17680
pitch_keycenter=F#1
sample=Cimbasso_muted_FF_F#2.opus
tune=+1
</region>

<region>
hikey=F#2
hivel=127
lokey=F2
loop_end=176391
loop_mode=loop_continuous
loop_start=55524
loop_xfade=30216
lovel=1
lpc=+SbrQVSUr8KwvOZCRLi8wu4xdULOiyHC92bkQV4ZrcFyXqNBjvOjwW48T0EM9Ls/7/InwUbVBEEw1Pa/d+qnv7xNBz+LEfW+2IiRQGkyCsG6cxJBwgHXwGTOakBa+nW/
lpc_rms=-42.37
offset=1602
pitch_keycenter=F#2
sample=Cimbasso_muted_FF_F#3.opus
tune=-1
</region>

<region>
hikey=F#3
hivel=127
lokey=F3
loop_end=177786
loop_mode=loop_continuous
loop_start=55963
loop_xfade=30455
lovel=1
lpc=LP8AQvcN1sJ5HB1DrkoLwwf6u0LUWozCyOmAQoX8W8IEJzhCtg8xwp1mEEL0IXnBAbjxv8wUpECYlsW+XxY6wD7ecT/kSz9Ak9IhwP3JOcAOHCRBYWVUwVNhC0FgoRTA
lpc_rms=-38.49
offset=2751
pitch_keycenter=F#3
sample=Cimbasso_muted_FF_F#4.opus
tune=-1
</region>

<region>
hikey=G#1
hivel=127
lokey=G1
loop_end=184853
loop_mode=loop_continuous
loop_start=58188
loop_xfade=31666
lovel=1
lpc=EJ3gQc2mp8LW7tRCq9iVwlyg+0FXxCzBCW73QOHd5cBS6rhAliuywHQAbECEyFk/aUU8wBztWT+gyuw/d08XwKC3Pz8U7ig/DRrePUwZo7+jxwhA4jAbwM40uj8bdIO+
lpc_rms=-45.96
offset=7160
pitch_keycenter=G#1
sample=Cimbasso_muted_FF_G#2.opus
tune=-1
</region>

<region>
hikey=G#2
hivel=127
lokey=G2
loop_end=175971
loop_mode=loop_continuous
loop_start=55392
loop_xfade=30144
lovel=1
lpc=wV4KQs3NysLOFftCPt67wv2ucUK7IDrCin4RQujxwMGWiJJBc+CLwfY8I0EDEslASQ+HwR/LMkFr9JA+m+vTwPH5n0DEWM+/Gv1xQDfH1sDyU+5A4Un1wKt91UAYwSnA
lpc_rms=-42.60
offset=1599
pitch_keycenter=G#2
sample=Cimbasso_muted_FF_G#3.opus
tune=-2
</region>

<region>
hikey=G#3
hivel=127
lokey=G3
loop_end=180607
loop_mode=loop_continuous
loop_start=56851
loop_xfade=30939
lovel=1
lpc=yFkmQkHm4sIYUPFCHuWUwkJySELveh/CQ+urQc74LsFsbUhBfIVZwew9yUCmx4A+jb6KPhOKRMDpLdpApfvJwIo/IEA5JSDAAJSqQCFuf8DBS2++Sd5fvrZBeUAqeSfA
lpc_rms=-38.55
offset=1572
pitch_keycenter=G#3
sample=Cimbasso_muted_FF_G#4.opus
tune=-2
</region>
</group>